<svg width="1440" height="121" viewBox="0 0 1440 121" fill="none" xmlns="http://www.w3.org/2000/svg">
<path d="M1 50.0656C113.631 28.8892 221.316 4.03557 347.116 4.16361C448.06 4.26636 583.144 17.3629 649.856 53.5965C663.066 60.7717 677.276 69.6761 678.523 79.2284C680.406 93.6381 642.891 101.48 617.886 106.56C581.449 113.963 468.545 129.51 444.677 103.683C425.518 82.9514 495.402 66.744 527.229 59.2198C579.913 46.7649 642.22 41.1106 700.137 35.288C750.02 30.2731 798.517 26.8418 849.33 24.2376C895.613 21.8655 942.974 22.9952 989.518 22.9952C1054 22.9952 1124.95 21.3116 1186.59 30.7109C1196.69 32.2504 1206.42 35.0786 1208.35 39.9305C1213.39 52.5463 1166.71 57.1341 1145.62 58.0429C1130.11 58.711 1092.93 54.8478 1095.18 45.3577C1097.13 37.1671 1125.46 30.427 1139.01 26.7877C1167.87 19.0352 1199.25 15.2372 1231.92 11.8793C1271.36 7.82492 1314.72 5.32927 1355.15 3.64051C1383.83 2.44246 1412.75 2.87901 1441 5.34059" stroke="url(#paint0_linear_8_74)" stroke-width="5" stroke-linecap="round"/>
<defs>
<linearGradient id="paint0_linear_8_74" x1="1" y1="118" x2="1441" y2="118" gradientUnits="userSpaceOnUse">
<stop stop-color="#200CFF"/>
<stop offset="1" stop-color="#8A82ED"/>
</linearGradient>
</defs>
</svg>
